<svg xmlns="http://www.w3.org/2000/svg"  viewBox="0 0 50 50" width="50px" height="50px"><path d="M 21.261719 -0.013671875 A 1.0001 1.0001 0 0 0 20.257812 0.875 L 20.078125 2.3164062 C 19.300118 2.7280205 18.770723 3.3487022 18.439453 4.0292969 C 13.739043 4.3213384 10 8.226424 10 13 L 10 45 C 10 45.217 10.069219 45.426609 10.199219 45.599609 C 10.334219 45.779609 13.619 50 24 50 C 33.131 50 36.316266 48.459531 36.447266 48.394531 C 36.786266 48.224531 37 47.879 37 47.5 L 37 43.5 C 37 43.156 36.820297 42.83925 36.529297 42.65625 C 36.369013 42.554351 36.184446 42.508337 36 42.507812 L 36 36.025391 C 37.799027 35.597452 38.481174 35.158227 38.658203 35.003906 C 38.884203 34.805906 39.002 34.528 39 34.25 L 39 34 L 23 34 C 19.14 34 16 30.86 16 27 L 16 21 C 16 18.794 17.794 17 20 17 C 21.148 17 21.969766 17.155516 23.009766 17.353516 C 24.516766 17.642516 26.391 18 30 18 C 33.114375 18 35.102315 17.414627 35.958984 17.095703 L 38.662109 18.435547 C 38.693109 18.450547 38.724859 18.463562 38.755859 18.476562 C 39.815859 18.873562 40.675094 19.623734 41.246094 20.552734 C 40.572094 20.203734 39.812 20 39 20 L 24 20 C 21.243 20 19 22.243 19 25 L 19 27 C 19 29.757 21.243 32 24 32 L 39 32 C 41.757 32 44 29.757 44 27 L 44 23.158203 C 44 20.274203 42.197812 17.654047 39.507812 16.623047 L 37 15.378906 L 37 13 C 37 8.226424 33.260957 4.3213384 28.560547 4.0292969 C 28.229277 3.3487022 27.699882 2.7280204 26.921875 2.3164062 L 26.742188 0.875 A 1.0001 1.0001 0 0 0 25.708984 -0.013671875 A 1.0001 1.0001 0 0 0 24.757812 1.125 L 24.867188 2 L 22.132812 2 L 22.242188 1.125 A 1.0001 1.0001 0 0 0 21.261719 -0.013671875 z M 21.248047 4 L 25.751953 4 C 26.589514 4.3144261 26.853569 4.8916798 26.923828 5.5292969 C 26.795831 5.5841359 26.685495 5.6409786 26.445312 5.7011719 C 25.749592 5.8755301 24.6828 6 23.5 6 C 22.3172 6 21.250407 5.8755301 20.554688 5.7011719 C 20.314506 5.6409786 20.204169 5.584136 20.076172 5.5292969 C 20.146431 4.8916798 20.410486 4.3144261 21.248047 4 z M 24 22 L 25 22 C 26.544092 22 27.85983 22.86962 28.527344 24.140625 A 1.0001 1.0001 0 0 0 28.705078 24.492188 C 28.892912 24.957201 29 25.465114 29 26 C 29 26.534886 28.892912 27.042799 28.705078 27.507812 A 1.0001 1.0001 0 0 0 28.527344 27.859375 C 27.85983 29.13038 26.544092 30 25 30 L 24 30 C 22.346 30 21 28.654 21 27 L 21.5 27 C 21.776 27 22 26.776 22 26.5 L 22 25.5 C 22 25.224 21.776 25 21.5 25 L 21 25 C 21 23.346 22.346 22 24 22 z M 34 22 C 36.220375 22 38 23.779625 38 26 C 38 28.220375 36.220375 30 34 30 C 32.556481 30 31.317929 29.233131 30.615234 28.089844 C 30.859819 27.437465 31 26.735384 31 26 C 31 25.264616 30.859819 24.562535 30.615234 23.910156 C 31.317929 22.766869 32.556481 22 34 22 z M 32.5 25 C 32.224 25 32 25.224 32 25.5 L 32 26.5 C 32 26.776 32.224 27 32.5 27 L 33.5 27 C 33.776 27 34 26.776 34 26.5 L 34 25.5 C 34 25.224 33.776 25 33.5 25 L 32.5 25 z M 34 36.404297 L 34 43.082031 C 33.487973 43.206451 32.807672 43.335809 32 43.462891 L 32 36.646484 C 32.731047 36.572104 33.417808 36.492628 34 36.404297 z M 20 36.751953 C 21.261821 36.906815 22.593154 37 24 37 L 24 44 C 22.583023 44 21.25407 43.898739 20 43.732422 L 20 36.751953 z M 30 36.806641 L 30 43.716797 C 28.87334 43.831846 27.541928 43.917385 26 43.960938 L 26 36.962891 C 27.495706 36.935285 28.833132 36.884236 30 36.806641 z M 18 36.830078 L 18 43.183594 C 16.789263 42.490289 16 41.177594 16 39.660156 C 16 38.781156 16.380875 37.948047 17.046875 37.373047 C 17.334492 37.124511 17.658961 36.950583 18 36.830078 z"/></svg>